<svg width="22" height="22" viewBox="0 0 22 22" fill="none" xmlns="http://www.w3.org/2000/svg">
<g clip-path="url(#clip0_85_170)">
<path d="M11.2982 0.427246C5.45175 0.427246 0.712158 5.16684 0.712158 11.0133C0.712158 15.9778 4.13019 20.1436 8.74105 21.2877V14.2484H6.55821V11.0133H8.74105V9.61934C8.74105 6.01627 10.3717 4.34621 13.9092 4.34621C14.5799 4.34621 15.7372 4.4779 16.2106 4.60917V7.54151C15.9608 7.51525 15.5267 7.50213 14.9877 7.50213C13.252 7.50213 12.5813 8.15973 12.5813 9.86917V11.0133H16.0391L15.445 14.2484H12.5813V21.5219C17.8231 20.8888 21.8847 16.4258 21.8847 11.0133C21.8843 5.16684 17.1447 0.427246 11.2982 0.427246Z" fill="white"/>
</g>
<defs>
<clipPath id="clip0_85_170">
<rect width="21.1721" height="21.1721" fill="white" transform="translate(0.712158 0.427246)"/>
</clipPath>
</defs>
</svg>
