<svg width="22" height="22" viewBox="0 0 22 22" fill="none" xmlns="http://www.w3.org/2000/svg">
<g clip-path="url(#clip0_85_169)">
<path d="M10.6896 2.44215C13.518 2.44215 13.853 2.45455 14.9654 2.50417C15.9992 2.54966 16.5574 2.72334 16.9296 2.86807C17.4217 3.05829 17.7773 3.28986 18.1453 3.65789C18.5175 4.03006 18.7449 4.38155 18.9351 4.87363C19.0799 5.2458 19.2535 5.80818 19.299 6.83784C19.3487 7.95434 19.3611 8.28929 19.3611 11.1136C19.3611 13.9421 19.3487 14.277 19.299 15.3894C19.2535 16.4232 19.0799 16.9814 18.9351 17.3536C18.7449 17.8457 18.5133 18.2013 18.1453 18.5694C17.7731 18.9415 17.4217 19.169 16.9296 19.3592C16.5574 19.5039 15.995 19.6776 14.9654 19.7231C13.8489 19.7727 13.5139 19.7851 10.6896 19.7851C7.86112 19.7851 7.52617 19.7727 6.4138 19.7231C5.38001 19.6776 4.82176 19.5039 4.44959 19.3592C3.95751 19.169 3.60188 18.9374 3.23385 18.5694C2.86168 18.1972 2.63425 17.8457 2.44403 17.3536C2.2993 16.9814 2.12562 16.4191 2.08013 15.3894C2.03051 14.2729 2.0181 13.938 2.0181 11.1136C2.0181 8.28516 2.03051 7.95021 2.08013 6.83784C2.12562 5.80405 2.2993 5.2458 2.44403 4.87363C2.63425 4.38155 2.86582 4.02592 3.23385 3.65789C3.60601 3.28572 3.95751 3.05829 4.44959 2.86807C4.82176 2.72334 5.38414 2.54966 6.4138 2.50417C7.52617 2.45455 7.86112 2.44215 10.6896 2.44215ZM10.6896 0.535828C7.81563 0.535828 7.45587 0.548233 6.32696 0.597855C5.2022 0.647478 4.42892 0.829425 3.75902 1.08994C3.06017 1.36286 2.46884 1.72262 1.88164 2.31396C1.29031 2.90115 0.930552 3.49248 0.65763 4.18719C0.397114 4.86123 0.215166 5.63037 0.165543 6.75514C0.115921 7.88818 0.103516 8.24794 0.103516 11.1219C0.103516 13.9958 0.115921 14.3556 0.165543 15.4845C0.215166 16.6093 0.397114 17.3826 0.65763 18.0525C0.930552 18.7513 1.29031 19.3426 1.88164 19.9298C2.46884 20.517 3.06017 20.8809 3.75488 21.1497C4.42892 21.4102 5.19806 21.5922 6.32283 21.6418C7.45173 21.6914 7.81149 21.7038 10.6854 21.7038C13.5594 21.7038 13.9192 21.6914 15.0481 21.6418C16.1728 21.5922 16.9461 21.4102 17.616 21.1497C18.3107 20.8809 18.9021 20.517 19.4892 19.9298C20.0764 19.3426 20.4403 18.7513 20.7091 18.0566C20.9696 17.3826 21.1516 16.6134 21.2012 15.4886C21.2508 14.3597 21.2632 14 21.2632 11.126C21.2632 8.25208 21.2508 7.89232 21.2012 6.76341C21.1516 5.63864 20.9696 4.86536 20.7091 4.19546C20.4486 3.49248 20.0889 2.90115 19.4975 2.31396C18.9103 1.72676 18.319 1.36286 17.6243 1.09408C16.9502 0.833561 16.1811 0.651613 15.0563 0.601991C13.9233 0.548233 13.5635 0.535828 10.6896 0.535828Z" fill="white"/>
<path d="M10.8344 5.82886C7.83223 5.82886 5.39661 8.26448 5.39661 11.2666C5.39661 14.2688 7.83223 16.7044 10.8344 16.7044C13.8365 16.7044 16.2721 14.2688 16.2721 11.2666C16.2721 8.26448 13.8365 5.82886 10.8344 5.82886ZM10.8344 14.7939C8.8867 14.7939 7.30706 13.2143 7.30706 11.2666C7.30706 9.31895 8.8867 7.73931 10.8344 7.73931C12.782 7.73931 14.3617 9.31895 14.3617 11.2666C14.3617 13.2143 12.782 14.7939 10.8344 14.7939Z" fill="white"/>
<path d="M17.6119 5.46909C17.6119 6.17207 17.0412 6.73859 16.3424 6.73859C15.6394 6.73859 15.0729 6.16793 15.0729 5.46909C15.0729 4.76611 15.6435 4.19958 16.3424 4.19958C17.0412 4.19958 17.6119 4.77024 17.6119 5.46909Z" fill="white"/>
</g>
<defs>
<clipPath id="clip0_85_169">
<rect width="21.1721" height="21.1721" fill="white" transform="translate(0.103516 0.535828)"/>
</clipPath>
</defs>
</svg>
