<svg width="23" height="22" viewBox="0 0 23 22" fill="none" xmlns="http://www.w3.org/2000/svg">
<g clip-path="url(#clip0_85_171)">
<path d="M20.5536 0.427246H2.51183C1.64758 0.427246 0.94873 1.10955 0.94873 1.95313V20.0694C0.94873 20.9129 1.64758 21.5994 2.51183 21.5994H20.5536C21.4179 21.5994 22.1209 20.9129 22.1209 20.0735V1.95313C22.1209 1.10955 21.4179 0.427246 20.5536 0.427246ZM7.23007 18.469H4.08733V8.36266H7.23007V18.469ZM5.6587 6.98564C4.64972 6.98564 3.83509 6.17101 3.83509 5.16616C3.83509 4.16132 4.64972 3.34668 5.6587 3.34668C6.66355 3.34668 7.47818 4.16132 7.47818 5.16616C7.47818 6.16688 6.66355 6.98564 5.6587 6.98564ZM18.9905 18.469H15.8519V13.5564C15.8519 12.3862 15.8313 10.8769 14.2185 10.8769C12.5851 10.8769 12.337 12.1546 12.337 13.4737V18.469H9.20255V8.36266H12.213V9.74381H12.2543C12.672 8.94986 13.6975 8.11041 15.2234 8.11041C18.4033 8.11041 18.9905 10.2028 18.9905 12.9238V18.469Z" fill="white"/>
</g>
<defs>
<clipPath id="clip0_85_171">
<rect width="21.1721" height="21.1721" fill="white" transform="translate(0.94873 0.427246)"/>
</clipPath>
</defs>
</svg>
